<svg version="1.1" id="Layer_1" xmlns="http://www.w3.org/2000/svg" xmlns:xlink="http://www.w3.org/1999/xlink" x="0px" y="0px"
	 width="100%" viewBox="0 0 473 355" enable-background="new 0 0 473 355" xml:space="preserve">
<path fill="#000000" opacity="1.000000" stroke="none" 
	d="
M296.000000,356.000000 
	C197.333344,356.000000 99.166687,356.000000 1.000026,356.000000 
	C1.000018,237.666687 1.000018,119.333382 1.000009,1.000058 
	C158.666626,1.000039 316.333252,1.000039 473.999908,1.000019 
	C473.999939,119.333275 473.999939,237.666550 473.999969,355.999908 
	C414.833344,356.000000 355.666656,356.000000 296.000000,356.000000 
M314.054047,220.823196 
	C314.623688,224.682938 319.196228,226.894089 323.250916,225.566116 
	C325.675415,224.772018 328.598999,223.554047 330.737640,224.249817 
	C334.885345,225.599197 338.600830,228.257675 342.633759,224.138184 
	C343.002289,223.761795 344.424866,223.931137 345.020264,224.339462 
	C350.115570,227.833679 353.126923,224.998260 355.983521,221.038895 
	C356.619202,220.157806 358.057281,219.162796 358.911102,219.328323 
	C359.751190,219.491196 360.384918,221.022186 360.984222,222.027374 
	C361.465118,222.833908 361.787048,224.516724 362.131653,224.504105 
	C366.327515,224.350357 370.362793,230.114105 374.866211,224.693893 
	C375.729187,223.655212 378.754242,223.842682 380.576202,224.294235 
	C383.972198,225.135925 387.153290,226.873230 390.558777,227.632919 
	C391.785858,227.906647 394.425598,226.685944 394.655487,225.724960 
	C395.494965,222.215759 396.176575,218.466278 395.801636,214.925491 
	C395.419342,211.315414 394.597443,205.620377 392.423248,204.765076 
	C387.552368,202.848969 387.935822,199.921219 387.945374,196.229462 
	C387.951721,193.770844 387.458252,191.309067 387.161621,188.851959 
	C386.704773,185.067780 387.388794,182.062042 392.052795,182.008377 
	C395.142303,181.972809 396.395630,180.214279 395.893707,177.519852 
	C395.480255,175.300507 393.558167,173.202759 393.614990,171.086288 
	C393.762848,165.578918 394.647278,160.092529 395.202148,154.594147 
	C395.361206,153.018265 396.102417,150.675797 395.362885,149.985794 
	C392.922668,147.709091 392.539032,142.510696 387.317688,143.805695 
	C386.853210,143.920883 386.200592,143.215134 385.617950,142.925827 
	C380.246063,140.258789 375.039124,135.815018 369.462646,135.287506 
	C355.281860,133.946091 340.935699,134.304932 326.654053,134.191986 
	C325.746735,134.184814 324.825317,135.964386 323.127411,137.022247 
	C322.104340,138.268280 320.434143,139.402313 320.195007,140.784027 
	C319.719116,143.533295 320.023163,146.418777 320.018372,149.248016 
	C320.011780,153.138672 321.987396,154.882675 325.851288,155.016907 
	C331.974670,155.229614 338.124817,155.386078 344.191681,156.143082 
	C346.491913,156.430084 350.585022,158.744217 350.444092,159.398514 
	C349.788300,162.443558 348.633118,166.815842 346.378479,167.807632 
	C340.091919,170.573029 333.577148,172.611755 327.311768,175.770157 
	C322.763367,178.063004 319.609100,179.160385 317.442139,184.575516 
	C314.803680,191.168900 310.232056,197.011993 309.270996,204.394379 
	C309.175507,205.127884 308.786102,205.823120 308.608948,206.322449 
	C307.899811,201.781586 306.368927,197.193558 306.678955,192.733459 
	C307.136658,186.148239 307.687531,186.221878 301.213989,184.970261 
	C299.434387,184.626190 297.726532,183.692673 295.953094,183.589157 
	C293.613953,183.452637 291.242584,183.867874 288.885071,184.045914 
	C288.300537,184.695969 287.791718,183.552094 287.305786,183.561722 
	C283.905121,183.629105 280.469238,183.711334 277.137512,184.307816 
	C276.203003,184.475143 275.705719,186.504578 274.773132,187.447754 
	C274.038116,188.191101 272.996002,188.721558 271.996094,189.093109 
	C269.987030,189.839600 267.881500,190.326782 265.873230,191.075165 
	C261.109589,192.850372 257.666595,190.729584 256.960938,185.771515 
	C256.612640,183.324417 255.717178,180.955200 254.933975,178.048462 
	C257.703583,174.457779 266.181305,169.531113 271.005432,168.862091 
	C271.993652,168.725052 273.471405,168.102036 273.730347,167.357620 
	C275.782806,161.456329 280.681915,160.647232 285.891785,159.927185 
	C289.297180,159.456528 294.577179,159.373001 295.588318,157.377975 
	C298.023132,152.574188 300.116882,146.393677 299.072479,141.462204 
	C298.399292,138.283569 293.653534,133.834778 287.950928,133.943024 
	C275.972412,134.170395 263.988373,134.106522 251.278488,134.219040 
	C249.950592,135.107941 248.542404,136.856171 247.308350,136.740860 
	C241.102982,136.161087 240.837036,139.719330 240.840897,144.418686 
	C240.842606,146.505814 238.908813,150.420242 238.145645,150.349594 
	C235.566635,150.110886 233.093536,148.510620 230.629929,147.326859 
	C229.251465,146.664520 228.016785,145.702469 226.637329,145.042679 
	C224.218903,143.885971 221.383438,143.306732 219.348740,141.695145 
	C212.072861,135.932251 204.873734,130.122604 195.158096,129.264221 
	C191.587570,128.948776 187.902939,128.726074 184.402115,129.285553 
	C182.410385,129.603851 180.778610,132.455215 178.822678,132.666656 
	C171.725616,133.433929 166.917526,138.638397 160.856537,141.058289 
	C156.851501,142.657318 150.394058,142.965210 147.205872,140.740112 
	C140.744293,136.230438 133.852478,134.498016 126.607620,134.147507 
	C115.141922,133.592743 103.616974,133.695892 92.143898,134.169525 
	C88.167870,134.333649 84.225967,136.307083 80.380180,137.751541 
	C79.675865,138.016083 78.849251,140.185104 79.200050,140.679245 
	C82.264153,144.995605 81.043343,148.610947 79.505241,153.451141 
	C77.487709,159.800034 79.104912,167.215179 77.792053,173.903458 
	C76.635834,179.793793 79.172737,187.401108 71.584442,191.118301 
	C71.202972,191.305176 71.093666,192.333374 71.093498,192.969894 
	C71.091164,201.892075 70.471748,210.883057 71.394493,219.711807 
	C71.990448,225.413864 71.043068,227.410324 78.901772,224.429321 
	C80.241402,223.921173 81.861061,223.976257 83.339561,224.040894 
	C88.470741,224.265259 93.599136,224.888504 98.724159,224.844559 
	C107.685165,224.767715 116.643188,224.093826 125.601845,224.106613 
	C129.660675,224.112411 133.701859,225.386475 137.780258,225.681717 
	C142.516373,226.024597 147.555984,229.118240 150.812012,225.314133 
	C154.575775,225.949524 157.316315,226.796707 160.054214,226.788208 
	C164.665939,226.773911 169.271500,226.088409 173.888107,225.926865 
	C177.799210,225.790024 181.747528,225.733063 185.634369,226.107620 
	C192.095779,226.730331 198.696289,222.808517 205.075073,226.776489 
	C205.743027,227.192001 207.215958,226.985535 207.955948,226.509201 
	C215.311920,221.774338 222.928604,223.950607 230.588470,225.340103 
	C233.321823,225.835938 236.226013,226.009277 238.947571,225.612274 
	C239.890732,225.474701 240.310425,222.963364 241.349655,221.912506 
	C242.302414,220.949112 243.767776,220.492630 245.736404,219.924683 
	C246.471252,219.987534 247.206085,220.050369 247.946518,220.040848 
	C247.946518,220.040848 247.874374,220.040695 248.009933,220.766190 
	C250.104996,223.057953 252.024506,225.563263 254.398972,227.515152 
	C255.139557,228.123962 258.163391,227.567215 258.346802,226.981674 
	C259.592468,223.005173 262.742188,224.076569 265.355438,224.043304 
	C273.160919,223.943954 280.968628,223.988846 288.775208,224.029037 
	C290.255005,224.036667 291.886292,223.921631 293.188202,224.474411 
	C302.300690,228.343567 303.898590,227.922791 310.082214,219.930038 
	C310.613434,219.243378 311.993927,219.213715 313.411896,219.199951 
	C313.642670,219.473160 313.873474,219.746384 314.054047,220.823196 
z"/>
<path fill="#424242" opacity="1.000000" stroke="none" 
	d="
M245.007278,219.812790 
	C243.767776,220.492630 242.302414,220.949112 241.349655,221.912506 
	C240.310425,222.963364 239.890732,225.474701 238.947571,225.612274 
	C236.226013,226.009277 233.321823,225.835938 230.588470,225.340103 
	C222.928604,223.950607 215.311920,221.774338 207.955948,226.509201 
	C207.215958,226.985535 205.743027,227.192001 205.075073,226.776489 
	C198.696289,222.808517 192.095779,226.730331 185.634369,226.107620 
	C181.747528,225.733063 177.799210,225.790024 173.888107,225.926865 
	C169.271500,226.088409 164.665939,226.773911 160.054214,226.788208 
	C157.316315,226.796707 154.575775,225.949524 150.812012,225.314133 
	C147.555984,229.118240 142.516373,226.024597 137.780258,225.681717 
	C133.701859,225.386475 129.660675,224.112411 125.601845,224.106613 
	C116.643188,224.093826 107.685165,224.767715 98.724159,224.844559 
	C93.599136,224.888504 88.470741,224.265259 83.339561,224.040894 
	C81.861061,223.976257 80.241402,223.921173 78.901772,224.429321 
	C71.043068,227.410324 71.990448,225.413864 71.394493,219.711807 
	C70.471748,210.883057 71.091164,201.892075 71.093498,192.969894 
	C71.093666,192.333374 71.202972,191.305176 71.584442,191.118301 
	C79.172737,187.401108 76.635834,179.793793 77.792053,173.903458 
	C79.104912,167.215179 77.487709,159.800034 79.505241,153.451141 
	C81.043343,148.610947 82.264153,144.995605 79.200050,140.679245 
	C78.849251,140.185104 79.675865,138.016083 80.380180,137.751541 
	C84.225967,136.307083 88.167870,134.333649 92.143898,134.169525 
	C103.616974,133.695892 115.141922,133.592743 126.607620,134.147507 
	C133.852478,134.498016 140.744293,136.230438 147.205872,140.740112 
	C150.394058,142.965210 156.851501,142.657318 160.856537,141.058289 
	C166.917526,138.638397 171.725616,133.433929 178.822678,132.666656 
	C180.778610,132.455215 182.410385,129.603851 184.402115,129.285553 
	C187.902939,128.726074 191.587570,128.948776 195.158096,129.264221 
	C204.873734,130.122604 212.072861,135.932251 219.348740,141.695145 
	C221.383438,143.306732 224.218903,143.885971 226.637329,145.042679 
	C228.016785,145.702469 229.251465,146.664520 230.629929,147.326859 
	C233.093536,148.510620 235.566635,150.110886 238.145645,150.349594 
	C238.908813,150.420242 240.842606,146.505814 240.840897,144.418686 
	C240.837036,139.719330 241.102982,136.161087 247.308350,136.740860 
	C248.542404,136.856171 249.950592,135.107941 251.640167,134.550751 
	C251.998398,135.602722 251.994949,136.322983 251.762817,137.254395 
	C250.911423,139.326096 250.288727,141.186630 249.666046,143.047150 
	C251.396225,142.558182 253.101364,141.931747 254.862183,141.610794 
	C257.898743,141.057281 260.962219,140.393997 264.028259,140.314911 
	C269.821747,140.165466 275.628754,140.554260 281.422943,140.416229 
	C285.272095,140.324539 288.408966,140.703018 289.224762,145.324127 
	C290.056610,150.036240 287.384735,151.290161 283.457458,152.091263 
	C279.125458,152.974915 274.374756,153.591873 270.756409,155.848297 
	C260.511108,162.237320 250.845200,169.548187 240.735565,176.166809 
	C238.139038,177.866730 234.746384,178.350632 232.995743,178.953598 
	C231.327377,171.889221 230.143173,165.505325 228.277176,159.327347 
	C226.047745,151.946228 221.371109,146.101929 215.118805,141.618896 
	C213.807739,140.678833 212.064774,140.341156 210.520828,139.725891 
	C210.067200,140.227463 209.613586,140.729034 209.159958,141.230606 
	C211.146393,143.801727 213.160995,146.351685 215.111435,148.949829 
	C217.108536,151.610123 219.042770,154.317627 220.988037,157.014984 
	C220.971573,157.025513 220.995483,156.995300 221.281403,157.185455 
	C226.986069,163.646347 226.286667,171.181152 225.754776,178.600647 
	C225.683670,179.592239 224.162292,181.226303 223.223068,181.292419 
	C214.911209,181.877548 206.512894,183.852188 198.723145,178.388840 
	C195.018005,175.790253 190.591782,174.026169 186.260773,172.574661 
	C182.776810,171.407043 181.087891,173.517044 182.520172,176.954758 
	C184.743652,182.291550 188.905609,185.536148 194.700134,185.861343 
	C203.263992,186.341934 211.412811,190.828171 220.586624,186.937714 
	C224.153305,185.425171 229.206512,186.750183 233.140549,184.018906 
	C233.263412,184.029572 233.634216,184.030884 233.634216,184.030884 
	C233.634216,184.030884 234.003738,183.998306 234.328720,183.991821 
	C235.087051,183.979935 235.520416,183.974533 236.191589,184.062836 
	C239.020554,185.221069 241.068390,184.952789 242.219803,181.766541 
	C242.960861,181.421768 243.460983,181.204819 244.139603,181.159790 
	C244.557816,181.559525 244.803192,181.781036 245.294128,181.974762 
	C245.534042,181.953217 246.013794,181.909500 246.012238,182.186722 
	C245.978745,184.982422 246.719177,187.843414 245.780685,189.959900 
	C241.785309,198.970337 237.292923,207.760406 232.516418,216.697052 
	C224.029251,216.830246 216.007645,216.897308 207.987015,216.661407 
	C207.799973,212.642593 205.481827,212.987228 203.051697,213.872772 
	C198.982315,215.355652 195.050919,217.325729 190.883179,218.397461 
	C187.251129,219.331421 183.159042,220.300888 179.639191,219.542435 
	C160.725021,215.466858 150.321136,206.211716 147.095352,184.421402 
	C146.389069,179.650299 144.149063,177.851486 138.620453,178.137604 
	C142.798737,181.123260 141.409424,183.201767 138.616791,185.066086 
	C137.646896,185.713593 136.658264,186.332993 135.683990,186.974045 
	C131.289413,189.865524 131.438416,190.544083 134.665909,194.609329 
	C139.200851,200.321411 143.391815,206.315689 147.538925,212.321152 
	C148.799515,214.146591 149.686111,216.494064 145.530792,216.996735 
	C122.365562,216.944336 99.668930,216.895355 76.981163,216.635986 
	C76.990028,216.425613 77.001488,216.004654 76.992966,215.759430 
	C76.984436,215.514221 76.961105,215.024017 77.105270,214.667908 
	C79.195091,204.512604 81.248947,194.733337 83.059631,184.909271 
	C85.445518,171.964310 87.695053,158.993378 89.885818,146.013794 
	C90.590271,141.840088 92.793007,139.944244 97.018837,140.035675 
	C102.015564,140.143784 107.016861,140.036362 112.016190,140.030289 
	C116.742653,140.024551 121.469139,140.029053 126.195610,140.029053 
	C126.317070,139.531326 126.438530,139.033615 126.559982,138.535889 
	C124.555923,138.040009 122.559731,137.156723 120.546440,137.115875 
	C112.217453,136.946930 103.883003,136.987473 95.551117,137.039474 
	C88.741600,137.081970 87.986816,137.730423 86.772377,144.522812 
	C82.696167,167.321213 78.661636,190.127060 74.604416,212.928864 
	C73.451271,219.409668 74.697563,220.983429 81.522316,220.998199 
	C103.019676,221.044769 124.517258,221.021713 146.014679,220.984802 
	C150.581482,220.976959 155.719681,222.069931 156.920624,215.551453 
	C176.127625,224.299545 180.079575,224.736328 199.849060,220.572617 
	C200.812775,220.369629 201.824509,220.288422 202.810043,220.311874 
	C211.626495,220.521515 220.444885,220.694946 229.256638,221.035645 
	C233.195389,221.187958 236.466888,220.113052 239.254837,216.836945 
	C240.356918,215.444489 241.174240,214.212723 241.996429,212.988434 
	C242.001297,212.995895 241.980255,212.986664 242.289490,213.145187 
	C243.401566,215.473404 244.204422,217.643097 245.007278,219.812790 
M242.391907,155.895004 
	C236.300674,157.172470 236.200104,163.024826 232.968979,166.972565 
	C238.164948,167.944244 241.778748,163.600250 243.060989,155.998703 
	C243.060989,155.998703 242.968994,155.965881 242.391907,155.895004 
M172.104584,138.420975 
	C165.447800,142.786789 158.791000,147.152618 152.118713,151.528595 
	C145.552917,141.832138 143.019379,140.236603 138.243546,143.687378 
	C140.148239,145.887283 142.071487,148.022659 143.893585,150.241119 
	C145.279373,151.928329 146.587387,153.685806 147.834457,155.478470 
	C148.782211,156.840881 149.505844,159.417831 150.460541,159.481400 
	C152.103531,159.590775 154.069992,158.447159 155.508560,157.326187 
	C159.388596,154.302750 161.107040,148.625198 167.049225,148.054871 
	C167.647369,147.997452 168.096710,146.866730 168.704056,146.335892 
	C170.324799,144.919312 172.065338,143.632172 173.611816,142.141678 
	C174.313004,141.465897 174.667496,140.430405 175.179276,139.558090 
	C174.332916,139.119720 173.486557,138.681351 172.104584,138.420975 
M229.143112,188.947571 
	C229.362473,188.702744 229.581833,188.457916 229.801193,188.213104 
	C229.642395,188.169891 229.483932,188.090805 229.324722,188.089249 
	C228.207993,188.078369 227.091110,188.083481 225.974274,188.083481 
	C225.965698,188.318954 225.957138,188.554428 225.948563,188.789917 
	C226.861267,188.852524 227.773956,188.915131 229.143112,188.947571 
M134.408295,142.713516 
	C134.491486,142.475327 134.574677,142.237137 134.657883,141.998947 
	C134.380280,141.954117 134.102676,141.909302 133.825073,141.864471 
	C133.946548,142.127533 134.068008,142.390579 134.408295,142.713516 
M96.479935,142.517502 
	C96.479935,142.517502 96.512833,142.513245 96.479935,142.517502 
M177.512482,142.479416 
	C177.512482,142.479416 177.493179,142.471237 177.512482,142.479416 
z"/>
<path fill="#454545" opacity="1.000000" stroke="none" 
	d="
M251.991501,137.043228 
	C251.994949,136.322983 251.998398,135.602722 252.004242,134.522354 
	C263.988373,134.106522 275.972412,134.170395 287.950928,133.943024 
	C293.653534,133.834778 298.399292,138.283569 299.072479,141.462204 
	C300.116882,146.393677 298.023132,152.574188 295.588318,157.377975 
	C294.577179,159.373001 289.297180,159.456528 285.891785,159.927185 
	C280.681915,160.647232 275.782806,161.456329 273.730347,167.357620 
	C273.471405,168.102036 271.993652,168.725052 271.005432,168.862091 
	C266.181305,169.531113 257.703583,174.457779 254.933975,178.048462 
	C255.717178,180.955200 256.612640,183.324417 256.960938,185.771515 
	C257.666595,190.729584 261.109589,192.850372 265.873230,191.075165 
	C267.881500,190.326782 269.987030,189.839600 271.996094,189.093109 
	C272.996002,188.721558 274.038116,188.191101 274.773132,187.447754 
	C275.705719,186.504578 276.203003,184.475143 277.137512,184.307816 
	C280.469238,183.711334 283.905121,183.629105 287.305786,183.561722 
	C287.791718,183.552094 288.300537,184.695969 288.885071,184.045914 
	C291.242584,183.867874 293.613953,183.452637 295.953094,183.589157 
	C297.726532,183.692673 299.434387,184.626190 301.213989,184.970261 
	C307.687531,186.221878 307.136658,186.148239 306.678955,192.733459 
	C306.368927,197.193558 307.899811,201.781586 308.608948,206.322449 
	C308.786102,205.823120 309.175507,205.127884 309.270996,204.394379 
	C310.232056,197.011993 314.803680,191.168900 317.442139,184.575516 
	C319.609100,179.160385 322.763367,178.063004 327.311768,175.770157 
	C333.577148,172.611755 340.091919,170.573029 346.378479,167.807632 
	C348.633118,166.815842 349.788300,162.443558 350.444092,159.398514 
	C350.585022,158.744217 346.491913,156.430084 344.191681,156.143082 
	C338.124817,155.386078 331.974670,155.229614 325.851288,155.016907 
	C321.987396,154.882675 320.011780,153.138672 320.018372,149.248016 
	C320.023163,146.418777 319.719116,143.533295 320.195007,140.784027 
	C320.434143,139.402313 322.104340,138.268280 323.544922,136.992950 
	C323.962433,136.963669 324.014404,137.014603 324.006104,137.447815 
	C323.753143,140.199707 323.486389,142.516312 323.268311,144.837463 
	C322.746094,150.394775 323.933136,151.841827 329.409363,151.984741 
	C333.906311,152.102097 338.425201,151.783890 342.904114,152.094574 
	C349.786469,152.572006 355.563751,155.435394 360.704254,161.487228 
	C354.470459,161.995468 351.568024,164.768890 351.663177,170.527298 
	C351.676422,171.331161 349.046478,172.423630 347.494354,172.963593 
	C342.368774,174.746674 337.176361,176.337677 331.795715,178.184845 
	C331.056488,178.900879 330.531128,179.434525 329.603485,179.987640 
	C325.464966,179.736938 322.882538,181.498474 321.221222,184.694550 
	C319.102203,188.771164 317.077301,192.896713 314.865540,197.356476 
	C314.152405,202.488724 313.585480,207.265640 313.018494,212.470428 
	C313.005585,214.891815 312.992737,216.885345 312.979919,218.878876 
	C311.993927,219.213715 310.613434,219.243378 310.082214,219.930038 
	C303.898590,227.922791 302.300690,228.343567 293.188202,224.474411 
	C291.886292,223.921631 290.255005,224.036667 288.775208,224.029037 
	C280.968628,223.988846 273.160919,223.943954 265.355438,224.043304 
	C262.742188,224.076569 259.592468,223.005173 258.346802,226.981674 
	C258.163391,227.567215 255.139557,228.123962 254.398972,227.515152 
	C252.024506,225.563263 250.104996,223.057953 248.361435,220.486069 
	C256.473450,220.469452 264.233948,220.732941 272.395386,220.997437 
	C273.865173,220.990112 274.933990,220.981781 276.464722,220.978912 
	C280.949799,220.977539 284.973022,220.970718 289.454651,220.971954 
	C293.275665,220.975357 296.638245,220.970703 300.388550,220.953156 
	C305.261444,220.854233 305.803467,218.932022 304.565216,214.792770 
	C303.492065,211.205414 302.960358,206.945526 303.842712,203.393631 
	C305.505646,196.699738 301.827698,189.945068 294.914734,189.188324 
	C292.292542,188.901291 289.623016,189.046570 286.705200,189.180313 
	C284.290558,190.910187 282.145782,192.454575 280.000488,193.999481 
	C280.000000,194.000000 279.998840,194.001129 279.638550,194.031311 
	C272.841492,194.718475 266.404694,195.375443 259.692627,196.213989 
	C253.710999,200.620499 249.578201,205.924454 248.021606,213.444000 
	C247.988617,215.962265 247.964783,218.037735 247.940933,220.113205 
	C247.206085,220.050369 246.471252,219.987534 245.371841,219.868744 
	C244.204422,217.643097 243.401566,215.473404 242.470978,212.825928 
	C245.475616,204.709030 248.733536,197.118271 251.700562,189.415466 
	C254.065872,183.274841 252.572617,181.298080 246.163147,180.877625 
	C253.556015,175.303772 260.773987,170.031815 267.989777,164.756912 
	C274.235138,160.191406 280.966888,156.816971 288.707977,155.489990 
	C294.753632,154.453629 295.124146,153.654968 294.188293,147.388748 
	C294.016571,146.238983 293.743042,145.098770 293.652557,143.943497 
	C293.249176,138.791443 290.464081,136.889862 285.373901,136.988113 
	C274.250244,137.202774 263.119415,137.047424 251.991501,137.043228 
z"/>
<path fill="#454545" opacity="1.000000" stroke="none" 
	d="
M323.936462,136.938202 
	C324.825317,135.964386 325.746735,134.184814 326.654053,134.191986 
	C340.935699,134.304932 355.281860,133.946091 369.462646,135.287506 
	C375.039124,135.815018 380.246063,140.258789 385.617950,142.925827 
	C386.200592,143.215134 386.853210,143.920883 387.317688,143.805695 
	C392.539032,142.510696 392.922668,147.709091 395.362885,149.985794 
	C396.102417,150.675797 395.361206,153.018265 395.202148,154.594147 
	C394.647278,160.092529 393.762848,165.578918 393.614990,171.086288 
	C393.558167,173.202759 395.480255,175.300507 395.893707,177.519852 
	C396.395630,180.214279 395.142303,181.972809 392.052795,182.008377 
	C387.388794,182.062042 386.704773,185.067780 387.161621,188.851959 
	C387.458252,191.309067 387.951721,193.770844 387.945374,196.229462 
	C387.935822,199.921219 387.552368,202.848969 392.423248,204.765076 
	C394.597443,205.620377 395.419342,211.315414 395.801636,214.925491 
	C396.176575,218.466278 395.494965,222.215759 394.655487,225.724960 
	C394.425598,226.685944 391.785858,227.906647 390.558777,227.632919 
	C387.153290,226.873230 383.972198,225.135925 380.576202,224.294235 
	C378.754242,223.842682 375.729187,223.655212 374.866211,224.693893 
	C370.362793,230.114105 366.327515,224.350357 362.131653,224.504105 
	C361.787048,224.516724 361.465118,222.833908 360.984222,222.027374 
	C360.384918,221.022186 359.751190,219.491196 358.911102,219.328323 
	C358.057281,219.162796 356.619202,220.157806 355.983521,221.038895 
	C353.126923,224.998260 350.115570,227.833679 345.020264,224.339462 
	C344.424866,223.931137 343.002289,223.761795 342.633759,224.138184 
	C338.600830,228.257675 334.885345,225.599197 330.737640,224.249817 
	C328.598999,223.554047 325.675415,224.772018 323.250916,225.566116 
	C319.196228,226.894089 314.623688,224.682938 314.488770,220.478363 
	C321.654266,220.406525 328.385071,220.679550 335.561279,220.954849 
	C339.308319,220.960190 342.609985,220.963257 346.297638,220.974762 
	C347.455750,220.989502 348.227875,220.995834 349.356720,220.994720 
	C351.064575,220.294037 353.479492,219.683502 353.541168,218.889999 
	C353.662598,217.328552 352.893982,215.238541 351.753540,214.125168 
	C348.441925,210.892136 344.609558,208.190872 341.316925,204.941116 
	C340.206360,203.845016 339.275055,200.572128 339.679871,200.283615 
	C341.369843,199.079086 343.644012,197.986404 345.616089,198.122925 
	C347.037964,198.221359 348.496307,200.181564 349.632050,201.563217 
	C352.689545,205.282715 355.826508,208.975403 358.483215,212.976654 
	C362.262238,218.668259 367.471680,221.076797 374.551392,220.965424 
	C379.643921,220.960831 384.280273,220.953552 389.300903,220.914413 
	C394.400116,219.129227 395.336365,215.967133 391.982117,211.227722 
	C388.138489,205.796783 383.942688,200.609741 379.784119,195.409332 
	C377.629822,192.715286 377.446228,190.394226 380.306213,188.143204 
	C388.128418,181.986603 390.072021,173.486511 390.039734,164.099655 
	C389.983093,147.631241 383.760681,139.656952 367.403290,138.208786 
	C353.017822,136.935211 338.483185,137.347092 324.014404,137.014603 
	C324.014404,137.014603 323.962433,136.963669 323.936462,136.938202 
z"/>
<path fill="#393939" opacity="1.000000" stroke="none" 
	d="
M349.000000,221.002167 
	C348.227875,220.995834 347.455750,220.989502 345.931671,220.850311 
	C341.825104,220.795822 338.470490,220.874207 335.115875,220.952576 
	C328.385071,220.679550 321.654266,220.406525 314.513855,220.076553 
	C313.873474,219.746384 313.642670,219.473160 313.195923,219.039413 
	C312.992737,216.885345 313.005585,214.891815 313.310913,212.622070 
	C315.441681,213.596375 317.280029,214.846863 319.384247,216.334946 
	C321.856934,217.041016 324.054016,217.852539 326.272308,217.915573 
	C333.846588,218.130814 341.428406,218.082748 349.006561,218.493500 
	C349.003876,219.568634 349.001923,220.285400 349.000000,221.002167 
z"/>
<path fill="#393939" opacity="1.000000" stroke="none" 
	d="
M245.987305,181.178223 
	C252.572617,181.298080 254.065872,183.274841 251.700562,189.415466 
	C248.733536,197.118271 245.475616,204.709030 242.161743,212.667404 
	C241.980255,212.986664 242.001297,212.995895 241.751221,213.192139 
	C240.657471,214.591476 239.813766,215.794540 238.970078,216.997620 
	C236.466888,220.113052 233.195389,221.187958 229.256638,221.035645 
	C220.444885,220.694946 211.626495,220.521515 202.810043,220.311874 
	C201.824509,220.288422 200.812775,220.369629 199.849060,220.572617 
	C180.079575,224.736328 176.127625,224.299545 156.920624,215.551453 
	C155.719681,222.069931 150.581482,220.976959 146.014679,220.984802 
	C124.517258,221.021713 103.019676,221.044769 81.522316,220.998199 
	C74.697563,220.983429 73.451271,219.409668 74.604416,212.928864 
	C78.661636,190.127060 82.696167,167.321213 86.772377,144.522812 
	C87.986816,137.730423 88.741600,137.081970 95.551117,137.039474 
	C103.883003,136.987473 112.217453,136.946930 120.546440,137.115875 
	C122.559731,137.156723 124.555923,138.040009 126.559982,138.535889 
	C126.438530,139.033615 126.317070,139.531326 126.195610,140.029053 
	C121.469139,140.029053 116.742653,140.024551 112.016190,140.030289 
	C107.016861,140.036362 102.015564,140.143784 97.018837,140.035675 
	C92.793007,139.944244 90.590271,141.840088 89.885818,146.013794 
	C87.695053,158.993378 85.445518,171.964310 83.059631,184.909271 
	C81.248947,194.733337 79.195091,204.512604 77.102493,214.790115 
	C76.953636,215.514847 76.968956,215.760254 77.001488,216.004654 
	C77.001488,216.004654 76.990028,216.425613 77.368164,216.800385 
	C79.712723,217.451172 81.678421,217.960754 83.645683,217.966858 
	C102.136635,218.024261 120.628014,218.029953 139.118805,217.948105 
	C141.413681,217.937927 143.705933,217.330719 145.999390,217.000153 
	C149.686111,216.494064 148.799515,214.146591 147.538925,212.321152 
	C143.391815,206.315689 139.200851,200.321411 134.665909,194.609329 
	C131.438416,190.544083 131.289413,189.865524 135.683990,186.974045 
	C136.658264,186.332993 137.646896,185.713593 138.616791,185.066086 
	C141.409424,183.201767 142.798737,181.123260 138.620453,178.137604 
	C144.149063,177.851486 146.389069,179.650299 147.095352,184.421402 
	C150.321136,206.211716 160.725021,215.466858 179.639191,219.542435 
	C183.159042,220.300888 187.251129,219.331421 190.883179,218.397461 
	C195.050919,217.325729 198.982315,215.355652 203.051697,213.872772 
	C205.481827,212.987228 207.799973,212.642593 208.375946,216.805145 
	C216.836594,217.044861 224.909302,216.837891 232.981995,216.630920 
	C237.292923,207.760406 241.785309,198.970337 245.780685,189.959900 
	C246.719177,187.843414 245.978745,184.982422 246.005951,182.004456 
	C246.001221,181.544983 245.987305,181.178223 245.987305,181.178223 
M143.096542,196.735062 
	C143.652618,197.223251 144.208694,197.711441 144.764755,198.199615 
	C145.052567,198.037170 145.340363,197.874710 145.628174,197.712265 
	C144.856537,194.930038 144.084900,192.147827 143.012970,188.282883 
	C139.571747,192.042511 141.230682,194.151932 143.096542,196.735062 
z"/>
<path fill="#3A3A3A" opacity="1.000000" stroke="none" 
	d="
M246.163147,180.877625 
	C245.987305,181.178223 246.001221,181.544983 246.007507,181.727234 
	C246.013794,181.909500 245.534042,181.953217 245.118973,181.798645 
	C244.467392,181.412781 244.219788,181.194046 243.961121,180.987854 
	C243.460983,181.204819 242.960861,181.421768 241.866425,181.837845 
	C239.499329,182.681015 237.726547,183.325073 235.953766,183.969116 
	C235.520416,183.974533 235.087051,183.979935 234.082169,183.993713 
	C233.510635,184.002106 233.017685,184.008240 233.017685,184.008240 
	C229.206512,186.750183 224.153305,185.425171 220.586624,186.937714 
	C211.412811,190.828171 203.263992,186.341934 194.700134,185.861343 
	C188.905609,185.536148 184.743652,182.291550 182.520172,176.954758 
	C181.087891,173.517044 182.776810,171.407043 186.260773,172.574661 
	C190.591782,174.026169 195.018005,175.790253 198.723145,178.388840 
	C206.512894,183.852188 214.911209,181.877548 223.223068,181.292419 
	C224.162292,181.226303 225.683670,179.592239 225.754776,178.600647 
	C226.286667,171.181152 226.986069,163.646347 221.283661,157.187805 
	C221.000000,157.000000 221.004517,157.004471 221.004517,157.004471 
	C219.042770,154.317627 217.108536,151.610123 215.111435,148.949829 
	C213.160995,146.351685 211.146393,143.801727 209.159958,141.230606 
	C209.613586,140.729034 210.067200,140.227463 210.520828,139.725891 
	C212.064774,140.341156 213.807739,140.678833 215.118805,141.618896 
	C221.371109,146.101929 226.047745,151.946228 228.277176,159.327347 
	C230.143173,165.505325 231.327377,171.889221 232.995743,178.953598 
	C234.746384,178.350632 238.139038,177.866730 240.735565,176.166809 
	C250.845200,169.548187 260.511108,162.237320 270.756409,155.848297 
	C274.374756,153.591873 279.125458,152.974915 283.457458,152.091263 
	C287.384735,151.290161 290.056610,150.036240 289.224762,145.324127 
	C288.408966,140.703018 285.272095,140.324539 281.422943,140.416229 
	C275.628754,140.554260 269.821747,140.165466 264.028259,140.314911 
	C260.962219,140.393997 257.898743,141.057281 254.862183,141.610794 
	C253.101364,141.931747 251.396225,142.558182 249.666046,143.047150 
	C250.288727,141.186630 250.911423,139.326096 251.762817,137.254395 
	C263.119415,137.047424 274.250244,137.202774 285.373901,136.988113 
	C290.464081,136.889862 293.249176,138.791443 293.652557,143.943497 
	C293.743042,145.098770 294.016571,146.238983 294.188293,147.388748 
	C295.124146,153.654968 294.753632,154.453629 288.707977,155.489990 
	C280.966888,156.816971 274.235138,160.191406 267.989777,164.756912 
	C260.773987,170.031815 253.556015,175.303772 246.163147,180.877625 
z"/>
<path fill="#393939" opacity="1.000000" stroke="none" 
	d="
M172.372375,138.331970 
	C173.486557,138.681351 174.332916,139.119720 175.179260,139.558090 
	C174.667496,140.430405 174.313004,141.465897 173.611816,142.141678 
	C172.065338,143.632172 170.324799,144.919312 168.704056,146.335892 
	C168.096710,146.866730 167.647369,147.997452 167.049225,148.054871 
	C161.107040,148.625198 159.388596,154.302750 155.508560,157.326187 
	C154.069992,158.447159 152.103531,159.590775 150.460541,159.481400 
	C149.505844,159.417831 148.782211,156.840881 147.834457,155.478470 
	C146.587387,153.685806 145.279373,151.928329 143.893585,150.241119 
	C142.071487,148.022659 140.148239,145.887283 138.243546,143.687378 
	C143.019379,140.236603 145.552917,141.832138 152.118713,151.528595 
	C158.791000,147.152618 165.447800,142.786789 172.372375,138.331970 
z"/>
<path fill="#313131" opacity="1.000000" stroke="none" 
	d="
M145.530792,216.996735 
	C143.705933,217.330719 141.413681,217.937927 139.118805,217.948105 
	C120.628014,218.029953 102.136635,218.024261 83.645683,217.966858 
	C81.678421,217.960754 79.712723,217.451172 77.359299,217.010757 
	C99.668930,216.895355 122.365562,216.944336 145.530792,216.996735 
z"/>
<path fill="#3A3A3A" opacity="1.000000" stroke="none" 
	d="
M243.039383,156.038193 
	C241.778748,163.600250 238.164948,167.944244 232.968979,166.972565 
	C236.200104,163.024826 236.300674,157.172470 242.698456,155.948120 
	C243.005020,156.001221 243.039383,156.038193 243.039383,156.038193 
z"/>
<path fill="#313131" opacity="1.000000" stroke="none" 
	d="
M232.516434,216.697052 
	C224.909302,216.837891 216.836594,217.044861 208.374969,217.108109 
	C216.007645,216.897308 224.029251,216.830246 232.516434,216.697052 
z"/>
<path fill="#454545" opacity="1.000000" stroke="none" 
	d="
M236.191589,184.062836 
	C237.726547,183.325073 239.499329,182.681015 241.625488,181.965668 
	C241.068390,184.952789 239.020554,185.221069 236.191589,184.062836 
z"/>
<path fill="#3A3A3A" opacity="1.000000" stroke="none" 
	d="
M228.914886,188.962646 
	C227.773956,188.915131 226.861267,188.852524 225.948563,188.789917 
	C225.957138,188.554428 225.965698,188.318954 225.974274,188.083481 
	C227.091110,188.083481 228.207993,188.078369 229.324722,188.089249 
	C229.483932,188.090805 229.642395,188.169891 229.801193,188.213104 
	C229.581833,188.457916 229.362473,188.702744 228.914886,188.962646 
z"/>
<path fill="#454545" opacity="1.000000" stroke="none" 
	d="
M239.254837,216.836945 
	C239.813766,215.794540 240.657471,214.591476 241.746368,213.184677 
	C241.174240,214.212723 240.356918,215.444489 239.254837,216.836945 
z"/>
<path fill="#393939" opacity="1.000000" stroke="none" 
	d="
M134.298889,142.683578 
	C134.068008,142.390579 133.946548,142.127533 133.825073,141.864471 
	C134.102676,141.909302 134.380280,141.954117 134.657867,141.998947 
	C134.574677,142.237137 134.491486,142.475327 134.298889,142.683578 
z"/>
<path fill="#454545" opacity="1.000000" stroke="none" 
	d="
M233.140549,184.018906 
	C233.017685,184.008240 233.510635,184.002106 233.757187,184.000214 
	C234.003738,183.998306 233.634216,184.030884 233.634216,184.030884 
	C233.634216,184.030884 233.263412,184.029572 233.140549,184.018906 
z"/>
<path fill="#393939" opacity="1.000000" stroke="none" 
	d="
M96.496384,142.515381 
	C96.512833,142.513245 96.479935,142.517502 96.496384,142.515381 
z"/>
<path fill="#454545" opacity="1.000000" stroke="none" 
	d="
M244.139603,181.159790 
	C244.219788,181.194046 244.467392,181.412781 244.879059,181.820190 
	C244.803192,181.781036 244.557816,181.559525 244.139603,181.159790 
z"/>
<path fill="#313131" opacity="1.000000" stroke="none" 
	d="
M76.992966,215.759430 
	C76.968956,215.760254 76.953636,215.514847 76.958321,215.146225 
	C76.961105,215.024017 76.984436,215.514221 76.992966,215.759430 
z"/>
<path fill="#393939" opacity="1.000000" stroke="none" 
	d="
M177.502838,142.475327 
	C177.493179,142.471237 177.512482,142.479416 177.502838,142.475327 
z"/>
<path fill="#3A3A3A" opacity="1.000000" stroke="none" 
	d="
M220.997742,156.997650 
	C220.995483,156.995300 220.971573,157.025513 220.988037,157.014984 
	C221.004517,157.004471 221.000000,157.000000 220.997742,156.997650 
z"/>
<path fill="#3A3A3A" opacity="1.000000" stroke="none" 
	d="
M242.987000,155.983551 
	C242.968994,155.965881 243.060989,155.998703 243.050186,156.018448 
	C243.039383,156.038193 243.005020,156.001221 242.987000,155.983551 
z"/>
<path fill="#424242" opacity="1.000000" stroke="none" 
	d="
M319.118347,216.097351 
	C317.280029,214.846863 315.441681,213.596375 313.310974,212.194214 
	C313.585480,207.265640 314.152405,202.488724 315.087830,197.483765 
	C316.884308,196.341904 318.623444,195.695282 319.681244,194.463577 
	C322.721497,190.923477 325.533539,187.182098 328.328094,183.439774 
	C329.083069,182.428741 329.456970,181.133133 330.005798,179.968155 
	C330.531128,179.434525 331.056488,178.900879 331.957581,178.404663 
	C333.818939,178.712860 335.598389,179.648529 336.741119,179.143509 
	C342.858490,176.440170 349.009583,175.626312 355.669647,176.698029 
	C357.364899,176.970825 360.208405,175.077515 361.246826,173.392273 
	C363.200256,170.222046 364.406586,166.536438 365.540497,162.944214 
	C365.974762,161.568420 365.939209,159.393921 365.124756,158.384766 
	C361.178741,153.495255 356.504669,149.203903 350.345062,147.481537 
	C347.382446,146.653107 343.984467,147.116150 340.814087,147.371933 
	C337.699036,147.623245 334.638641,148.602676 331.524719,148.802216 
	C328.420654,149.001129 326.337250,147.645462 327.022034,143.623886 
	C327.090332,142.489517 327.137054,141.732910 327.320435,140.838409 
	C327.635742,140.513138 327.807251,140.319366 328.443054,140.096222 
	C338.931274,140.045013 348.947968,140.016815 359.361969,140.081451 
	C367.923279,140.840668 375.423492,143.063126 381.037445,149.501709 
	C385.312775,154.405029 388.325989,159.760681 386.560577,166.632309 
	C384.396484,175.055710 381.097778,182.619186 372.702393,186.897614 
	C371.670380,187.423538 370.736420,190.668594 371.339264,191.484314 
	C377.242004,199.471756 383.480804,207.210861 389.696106,215.349426 
	C389.839752,216.120529 389.911346,216.562790 389.996765,216.999969 
	C390.010590,216.994904 389.995331,216.969696 389.527130,216.968781 
	C383.032776,216.962265 377.006653,216.956665 370.683990,216.784103 
	C367.331085,213.935883 364.063782,211.456131 361.266388,208.527512 
	C356.750732,203.799988 352.836487,198.470032 348.113708,193.977417 
	C344.444702,190.487244 340.471832,192.312241 336.912292,195.110229 
	C333.454376,197.828323 332.368622,201.515305 335.100708,204.635254 
	C338.818146,208.880493 343.534210,212.251312 347.457916,216.149872 
	C337.768646,216.234207 328.443512,216.165771 319.118347,216.097351 
M315.522400,210.486237 
	C315.522400,210.486237 315.483215,210.496536 315.522400,210.486237 
z"/>
<path fill="#393939" opacity="1.000000" stroke="none" 
	d="
M389.624054,215.020584 
	C383.480804,207.210861 377.242004,199.471756 371.339264,191.484314 
	C370.736420,190.668594 371.670380,187.423538 372.702393,186.897614 
	C381.097778,182.619186 384.396484,175.055710 386.560577,166.632309 
	C388.325989,159.760681 385.312775,154.405029 381.037445,149.501709 
	C375.423492,143.063126 367.923279,140.840668 358.975281,139.953354 
	C348.118073,139.861328 338.044800,139.990265 327.971527,140.119217 
	C327.807251,140.319366 327.635742,140.513138 327.206635,141.079376 
	C326.971008,142.306046 326.985779,143.153854 327.000519,144.001648 
	C326.337250,147.645462 328.420654,149.001129 331.524719,148.802216 
	C334.638641,148.602676 337.699036,147.623245 340.814087,147.371933 
	C343.984467,147.116150 347.382446,146.653107 350.345062,147.481537 
	C356.504669,149.203903 361.178741,153.495255 365.124756,158.384766 
	C365.939209,159.393921 365.974762,161.568420 365.540497,162.944214 
	C364.406586,166.536438 363.200256,170.222046 361.246826,173.392273 
	C360.208405,175.077515 357.364899,176.970825 355.669647,176.698029 
	C349.009583,175.626312 342.858490,176.440170 336.741119,179.143509 
	C335.598389,179.648529 333.818939,178.712860 332.171478,178.222244 
	C337.176361,176.337677 342.368774,174.746674 347.494354,172.963593 
	C349.046478,172.423630 351.676422,171.331161 351.663177,170.527298 
	C351.568024,164.768890 354.470459,161.995468 360.704254,161.487228 
	C355.563751,155.435394 349.786469,152.572006 342.904114,152.094574 
	C338.425201,151.783890 333.906311,152.102097 329.409363,151.984741 
	C323.933136,151.841827 322.746094,150.394775 323.268311,144.837463 
	C323.486389,142.516312 323.753143,140.199707 324.006104,137.447815 
	C338.483185,137.347092 353.017822,136.935211 367.403290,138.208786 
	C383.760681,139.656952 389.983093,147.631241 390.039734,164.099655 
	C390.072021,173.486511 388.128418,181.986603 380.306213,188.143204 
	C377.446228,190.394226 377.629822,192.715286 379.784119,195.409332 
	C383.942688,200.609741 388.138489,205.796783 391.982117,211.227722 
	C395.336365,215.967133 394.400116,219.129227 389.150269,220.755615 
	C388.412201,220.416061 388.207092,220.205383 388.124268,219.757935 
	C388.498169,219.042465 388.747803,218.565674 389.167542,217.905396 
	C389.562103,217.475754 389.781342,217.225021 389.995331,216.969696 
	C389.995331,216.969696 390.010590,216.994904 390.029510,216.795380 
	C389.906982,216.070770 389.765503,215.545670 389.624054,215.020584 
z"/>
<path fill="#424242" opacity="1.000000" stroke="none" 
	d="
M259.967896,196.032410 
	C266.404694,195.375443 272.841492,194.718475 279.650146,194.046906 
	C280.021973,194.032303 280.001007,193.998932 280.001007,193.998932 
	C282.145782,192.454575 284.290558,190.910187 287.051147,189.318787 
	C294.361755,190.359375 298.413879,194.372559 299.653625,200.888840 
	C300.471985,205.190567 300.578888,209.627670 300.986816,214.013947 
	C300.969269,214.023758 300.996002,213.995697 301.040222,214.245087 
	C300.386047,215.323669 299.687653,216.152863 298.730255,216.990845 
	C298.298431,217.005066 298.125641,217.010452 297.489044,217.009888 
	C282.323029,216.993057 267.620819,216.982132 252.711227,216.732040 
	C252.025253,215.338593 251.546677,214.184311 251.232727,212.729034 
	C254.297668,206.697037 258.457092,202.235672 264.308136,199.929474 
	C262.759277,198.538773 261.363586,197.285599 259.967896,196.032410 
z"/>
<path fill="#393939" opacity="1.000000" stroke="none" 
	d="
M301.004333,214.004150 
	C300.578888,209.627670 300.471985,205.190567 299.653625,200.888840 
	C298.413879,194.372559 294.361755,190.359375 287.321014,189.133301 
	C289.623016,189.046570 292.292542,188.901291 294.914734,189.188324 
	C301.827698,189.945068 305.505646,196.699738 303.842712,203.393631 
	C302.960358,206.945526 303.492065,211.205414 304.565216,214.792770 
	C305.803467,218.932022 305.261444,220.854233 300.329834,220.616486 
	C299.585388,219.189148 299.287323,218.085602 298.989288,216.982056 
	C299.687653,216.152863 300.386047,215.323669 301.042236,214.247238 
	C301.000000,214.000000 301.004364,214.004150 301.004333,214.004150 
z"/>
<path fill="#393939" opacity="1.000000" stroke="none" 
	d="
M259.692627,196.213989 
	C261.363586,197.285599 262.759277,198.538773 264.308136,199.929474 
	C258.457092,202.235672 254.297668,206.697037 250.851379,212.723022 
	C249.547195,213.012436 248.788971,213.006821 248.030762,213.001221 
	C249.578201,205.924454 253.710999,200.620499 259.692627,196.213989 
z"/>
<path fill="#393939" opacity="1.000000" stroke="none" 
	d="
M329.603485,179.987640 
	C329.456970,181.133133 329.083069,182.428741 328.328094,183.439774 
	C325.533539,187.182098 322.721497,190.923477 319.681244,194.463577 
	C318.623444,195.695282 316.884308,196.341904 315.234070,197.128448 
	C317.077301,192.896713 319.102203,188.771164 321.221222,184.694550 
	C322.882538,181.498474 325.464966,179.736938 329.603485,179.987640 
z"/>
<path fill="#393939" opacity="1.000000" stroke="none" 
	d="
M248.021606,213.444000 
	C248.788971,213.006821 249.547195,213.012436 250.686752,213.024048 
	C251.546677,214.184311 252.025253,215.338593 252.965088,216.884933 
	C253.953217,217.542053 254.480118,217.807083 255.290314,218.310120 
	C257.453644,219.024551 259.309357,219.683472 261.218964,219.938004 
	C264.794281,220.414551 268.400879,220.656754 271.994446,220.996429 
	C264.233948,220.732941 256.473450,220.469452 248.293655,220.123322 
	C247.874374,220.040695 247.946518,220.040848 247.943726,220.077026 
	C247.964783,218.037735 247.988617,215.962265 248.021606,213.444000 
z"/>
<path fill="#3A3A3A" opacity="1.000000" stroke="none" 
	d="
M272.395386,220.997437 
	C268.400879,220.656754 264.794281,220.414551 261.218964,219.938004 
	C259.309357,219.683472 257.453644,219.024551 255.758057,218.298035 
	C262.628021,218.033356 269.313538,218.018768 275.999512,218.375702 
	C276.000946,219.489288 276.001892,220.231369 276.002838,220.973450 
	C274.933990,220.981781 273.865173,220.990112 272.395386,220.997437 
z"/>
<path fill="#393939" opacity="1.000000" stroke="none" 
	d="
M276.464722,220.978912 
	C276.001892,220.231369 276.000946,219.489288 276.462799,218.372864 
	C280.950531,218.000305 284.975494,218.002106 288.999939,218.374298 
	C288.998383,219.484421 288.997284,220.224167 288.996216,220.963898 
	C284.973022,220.970718 280.949799,220.977539 276.464722,220.978912 
z"/>
<path fill="#3A3A3A" opacity="1.000000" stroke="none" 
	d="
M289.454651,220.971954 
	C288.997284,220.224167 288.998383,219.484421 289.430725,218.371323 
	C292.558960,217.670578 295.255890,217.343201 297.952850,217.015823 
	C298.125641,217.010452 298.298431,217.005066 298.730255,216.990860 
	C299.287323,218.085602 299.585388,219.189148 299.942108,220.629364 
	C296.638245,220.970703 293.275665,220.975357 289.454651,220.971954 
z"/>
<path fill="#3A3A3A" opacity="1.000000" stroke="none" 
	d="
M388.997467,218.088898 
	C388.747803,218.565674 388.498169,219.042465 387.662476,219.761047 
	C382.749359,220.322800 378.422272,220.642776 374.095215,220.962738 
	C367.471680,221.076797 362.262238,218.668259 358.483215,212.976654 
	C355.826508,208.975403 352.689545,205.282715 349.632050,201.563217 
	C348.496307,200.181564 347.037964,198.221359 345.616089,198.122925 
	C343.644012,197.986404 341.369843,199.079086 339.679871,200.283615 
	C339.275055,200.572128 340.206360,203.845016 341.316925,204.941116 
	C344.609558,208.190872 348.441925,210.892136 351.753540,214.125168 
	C352.893982,215.238541 353.662598,217.328552 353.541168,218.889999 
	C353.479492,219.683502 351.064575,220.294037 349.356720,220.994720 
	C349.001923,220.285400 349.003876,219.568634 349.111328,218.342743 
	C348.751923,217.221436 348.286987,216.609268 347.822021,215.997101 
	C343.534210,212.251312 338.818146,208.880493 335.100708,204.635254 
	C332.368622,201.515305 333.454376,197.828323 336.912292,195.110229 
	C340.471832,192.312241 344.444702,190.487244 348.113708,193.977417 
	C352.836487,198.470032 356.750732,203.799988 361.266388,208.527512 
	C364.063782,211.456131 367.331085,213.935883 371.072235,216.932373 
	C377.503815,217.528061 383.250641,217.808487 388.997467,218.088898 
z"/>
<path fill="#313131" opacity="1.000000" stroke="none" 
	d="
M374.551392,220.965424 
	C378.422272,220.642776 382.749359,220.322800 387.538208,219.999725 
	C388.207092,220.205383 388.412201,220.416061 388.765961,220.787460 
	C384.280273,220.953552 379.643921,220.960831 374.551392,220.965424 
z"/>
<path fill="#313131" opacity="1.000000" stroke="none" 
	d="
M335.561279,220.954849 
	C338.470490,220.874207 341.825104,220.795822 345.545685,220.841888 
	C342.609985,220.963257 339.308319,220.960190 335.561279,220.954849 
z"/>
<path fill="#313131" opacity="1.000000" stroke="none" 
	d="
M347.457916,216.149872 
	C348.286987,216.609268 348.751923,217.221436 349.112091,217.984375 
	C341.428406,218.082748 333.846588,218.130814 326.272308,217.915573 
	C324.054016,217.852539 321.856934,217.041016 319.384247,216.334946 
	C328.443512,216.165771 337.768646,216.234207 347.457916,216.149872 
z"/>
<path fill="#454545" opacity="1.000000" stroke="none" 
	d="
M142.914978,196.503098 
	C141.230682,194.151932 139.571747,192.042511 143.012970,188.282883 
	C144.084900,192.147827 144.856537,194.930038 145.628174,197.712265 
	C145.340363,197.874710 145.052567,198.037170 144.764755,198.199615 
	C144.208694,197.711441 143.652618,197.223251 142.914978,196.503098 
z"/>
<path fill="#313131" opacity="1.000000" stroke="none" 
	d="
M328.443054,140.096222 
	C338.044800,139.990265 348.118073,139.861328 358.578003,139.860504 
	C348.947968,140.016815 338.931274,140.045013 328.443054,140.096222 
z"/>
<path fill="#313131" opacity="1.000000" stroke="none" 
	d="
M389.167542,217.905396 
	C383.250641,217.808487 377.503815,217.528061 371.368744,217.099365 
	C377.006653,216.956665 383.032776,216.962265 389.527130,216.968781 
	C389.781342,217.225021 389.562103,217.475754 389.167542,217.905396 
z"/>
<path fill="#313131" opacity="1.000000" stroke="none" 
	d="
M327.022034,143.623886 
	C326.985779,143.153854 326.971008,142.306046 327.070007,141.217285 
	C327.137054,141.732910 327.090332,142.489517 327.022034,143.623886 
z"/>
<path fill="#313131" opacity="1.000000" stroke="none" 
	d="
M389.696106,215.349426 
	C389.765503,215.545670 389.906982,216.070770 390.015686,216.800446 
	C389.911346,216.562790 389.839752,216.120529 389.696106,215.349426 
z"/>
<path fill="#393939" opacity="1.000000" stroke="none" 
	d="
M315.502808,210.491394 
	C315.483215,210.496536 315.522400,210.486237 315.502808,210.491394 
z"/>
<path fill="#313131" opacity="1.000000" stroke="none" 
	d="
M297.489044,217.009888 
	C295.255890,217.343201 292.558960,217.670578 289.431213,218.000931 
	C284.975494,218.002106 280.950531,218.000305 276.462341,218.001343 
	C269.313538,218.018768 262.628021,218.033356 255.474762,218.060028 
	C254.480118,217.807083 253.953217,217.542053 253.172485,217.124115 
	C267.620819,216.982132 282.323029,216.993057 297.489044,217.009888 
z"/>
<path fill="#393939" opacity="1.000000" stroke="none" 
	d="
M300.997986,213.997849 
	C300.996002,213.995697 300.969269,214.023758 300.986816,214.013947 
	C301.004364,214.004150 301.000000,214.000000 300.997986,213.997849 
z"/>
<path fill="#454545" opacity="1.000000" stroke="none" 
	d="
M280.000488,193.999466 
	C280.001007,193.998932 280.021973,194.032303 280.010406,194.016724 
	C279.998840,194.001129 280.000000,194.000000 280.000488,193.999466 
z"/>
</svg>